<svg width="17" height="25" viewBox="0 0 17 25" fill="none" xmlns="http://www.w3.org/2000/svg">
<path d="M10.8877 2.33455C11.5275 1.99776 12.2796 1.89756 13.0239 2.10873C14.6437 2.56829 15.605 4.3312 15.1709 6.0463L12.701 15.8063C12.267 17.5214 10.6021 18.5392 8.98225 18.0797C7.36244 17.6201 6.40118 15.8572 6.83521 14.1421L7.82316 10.2381C7.93477 9.79707 7.68758 9.34375 7.27106 9.22557C6.85454 9.1074 6.42641 9.36913 6.3148 9.81015L5.32685 13.7142C4.66961 16.3113 6.12524 18.9808 8.57809 19.6767C11.0309 20.3726 13.5522 18.8314 14.2094 16.2342L16.6793 6.47424C17.3365 3.87709 15.8809 1.20755 13.4281 0.511643C12.3022 0.192228 11.1601 0.344714 10.1926 0.853965C9.59931 1.16623 9.07043 1.61313 8.6493 2.16905C8.37949 2.52522 8.43345 3.04554 8.76983 3.33122C9.1062 3.6169 9.59761 3.55977 9.86742 3.2036C10.1449 2.83727 10.4945 2.5415 10.8877 2.33455Z" fill="#0D296E"/>
<path d="M4.13606 9.19201C4.57009 7.47692 6.23505 6.45911 7.85485 6.91866C9.47466 7.37822 10.4359 9.14113 10.0019 10.8562L9.01395 14.7602C8.90234 15.2013 9.14952 15.6546 9.56604 15.7727C9.98256 15.8909 10.4107 15.6292 10.5223 15.1882L11.5103 11.2842C12.1675 8.68702 10.7119 6.01747 8.25902 5.32157C5.80617 4.62567 3.28494 6.16693 2.6277 8.76408L0.157813 18.5241C-0.499427 21.1212 0.956204 23.7908 3.40905 24.4867C4.5349 24.8061 5.67702 24.6536 6.64454 24.1444C7.2378 23.8321 7.76667 23.3852 8.18781 22.8293C8.45762 22.4731 8.40366 21.9528 8.06728 21.6671C7.7309 21.3814 7.23949 21.4386 6.96968 21.7947C6.69217 22.161 6.3426 22.4568 5.94942 22.6638C5.30956 23.0006 4.55756 23.1008 3.81322 22.8896C2.19341 22.43 1.23215 20.6671 1.66617 18.952L4.13606 9.19201Z" fill="#0D296E"/>
</svg>
