<svg width="16" height="21" viewBox="0 0 16 21" fill="none" xmlns="http://www.w3.org/2000/svg">
<path fill-rule="evenodd" clip-rule="evenodd" d="M7.93555 0C5.31219 0 3.18555 2.12665 3.18555 4.75C3.18555 7.37335 5.31219 9.5 7.93555 9.5C10.5589 9.5 12.6855 7.37335 12.6855 4.75C12.6855 2.12665 10.5589 0 7.93555 0ZM4.68555 4.75C4.68555 2.95507 6.14062 1.5 7.93555 1.5C9.73047 1.5 11.1855 2.95507 11.1855 4.75C11.1855 6.54493 9.73047 8 7.93555 8C6.14062 8 4.68555 6.54493 4.68555 4.75Z" fill="white"/>
<path fill-rule="evenodd" clip-rule="evenodd" d="M4.93555 11C2.31219 11 0.185547 13.1266 0.185547 15.75C0.185547 18.3734 2.31219 20.5 4.93555 20.5H10.9355C13.5589 20.5 15.6855 18.3734 15.6855 15.75C15.6855 13.1266 13.5589 11 10.9355 11H4.93555ZM1.68555 15.75C1.68555 13.9551 3.14062 12.5 4.93555 12.5H10.9355C12.7305 12.5 14.1855 13.9551 14.1855 15.75C14.1855 17.5449 12.7305 19 10.9355 19H4.93555C3.14062 19 1.68555 17.5449 1.68555 15.75Z" fill="white"/>
</svg>
