<svg width="18" height="20" viewBox="0 0 18 20" fill="none" xmlns="http://www.w3.org/2000/svg">
<path fill-rule="evenodd" clip-rule="evenodd" d="M2.48222 6.1275C-0.053976 7.94862 -0.0539685 11.9051 2.48223 13.7262L9.76395 18.9548C11.3469 20.0914 13.4144 20.1516 15.0583 19.1257C18.3403 17.0774 18.3051 11.9923 14.9441 10.051C14.8513 9.9974 14.8513 9.85628 14.9441 9.80267C18.3051 7.86136 18.3403 2.77621 15.0583 0.72794C13.4144 -0.297966 11.3469 -0.237783 9.76393 0.898836L2.48222 6.1275ZM3.27736 12.4847C1.56987 11.2587 1.56987 8.59501 3.27735 7.36895L10.5591 2.14029C11.6852 1.33168 13.1629 1.28625 14.3389 2.02018C16.6894 3.48711 16.6444 7.11193 14.2657 8.48586C13.1886 9.10801 13.1886 10.7457 14.2657 11.3678C16.6444 12.7417 16.6894 16.3665 14.3389 17.8335C13.1629 18.5674 11.6852 18.522 10.5591 17.7134L3.27736 12.4847Z" fill="#0D296E"/>
</svg>
