<svg width="31" height="27" viewBox="0 0 31 27" fill="none" xmlns="http://www.w3.org/2000/svg">
<path fill-rule="evenodd" clip-rule="evenodd" d="M13.3784 2.2958C14.7759 2.02676 16.2077 2.02676 17.6052 2.2958C23.8848 3.50471 28.1223 9.77591 27.1756 16.4591L27.1648 16.5353C25.2521 16.6415 23.7321 18.3173 23.7321 20.3689V23.161C23.7321 25.2812 25.3554 27 27.3579 27C29.3603 27 30.9836 25.2812 30.9836 23.161V20.3689C30.9836 18.9158 30.2217 17.6528 29.0986 17.0008L29.1314 16.7698C30.2366 8.9678 25.2898 1.64683 17.959 0.235556C16.3276 -0.0785185 14.656 -0.0785185 13.0246 0.235555C5.69385 1.64683 0.746995 8.96779 1.85227 16.7698L1.885 17.0008C0.761873 17.6528 0 18.9158 0 20.3689V23.161C0 25.2812 1.6233 27 3.62574 27C5.62819 27 7.25149 25.2812 7.25149 23.161V20.3689C7.25149 18.3173 5.73152 16.6415 3.81885 16.5353L3.80807 16.4591C2.86128 9.77591 7.09879 3.50471 13.3784 2.2958ZM3.22046 18.6768C3.34909 18.6425 3.48467 18.6239 3.62574 18.6239C4.53594 18.6239 5.27381 19.4052 5.27381 20.3689V23.161C5.27381 24.1247 4.53594 24.906 3.62574 24.906C2.71554 24.906 1.97768 24.1247 1.97768 23.161V20.3689C1.97768 19.5544 2.50569 18.8678 3.22046 18.6768ZM25.7098 20.3689C25.7098 19.4052 26.4477 18.6239 27.3579 18.6239C27.499 18.6239 27.6345 18.6425 27.7632 18.6768C28.4779 18.8678 29.0059 19.5544 29.0059 20.3689V23.161C29.0059 24.1247 28.2681 24.906 27.3579 24.906C26.4477 24.906 25.7098 24.1247 25.7098 23.161V20.3689Z" fill="white"/>
</svg>
